# This file uses centimeters as units for non-parametric coordinates.

g default
v 4.906445 26.288233 40.900167
v 5.317555 26.288233 40.900167
v 4.906445 26.821566 40.900167
v 5.317555 26.821566 40.900167
v 4.906445 26.821566 -15.312489
v 5.317555 26.821566 -15.312489
v 4.906445 26.288233 -15.312489
v 5.317555 26.288233 -15.312489
v 6.682392 26.288233 40.900167
v 7.093503 26.288233 40.900167
v 6.682392 26.821566 40.900167
v 7.093503 26.821566 40.900167
v 6.682392 26.821566 -15.312489
v 7.093503 26.821566 -15.312489
v 6.682392 26.288233 -15.312489
v 7.093503 26.288233 -15.312489
v 1.906444 26.288233 40.900167
v 2.317555 26.288233 40.900167
v 1.906444 26.821566 40.900167
v 2.317555 26.821566 40.900167
v 1.906444 26.821566 -15.312489
v 2.317555 26.821566 -15.312489
v 1.906444 26.288233 -15.312489
v 2.317555 26.288233 -15.312489
v 3.682392 26.288233 40.900167
v 4.093503 26.288233 40.900167
v 3.682392 26.821566 40.900167
v 4.093503 26.821566 40.900167
v 3.682392 26.821566 -15.312489
v 4.093503 26.821566 -15.312489
v 3.682392 26.288233 -15.312489
v 4.093503 26.288233 -15.312489
v -7.093555 26.288233 40.900167
v -6.682445 26.288233 40.900167
v -7.093555 26.821566 40.900167
v -6.682445 26.821566 40.900167
v -7.093555 26.821566 -15.312489
v -6.682445 26.821566 -15.312489
v -7.093555 26.288233 -15.312489
v -6.682445 26.288233 -15.312489
v -5.317608 26.288233 40.900167
v -4.906497 26.288233 40.900167
v -5.317608 26.821566 40.900167
v -4.906497 26.821566 40.900167
v -5.317608 26.821566 -15.312489
v -4.906497 26.821566 -15.312489
v -5.317608 26.288233 -15.312489
v -4.906497 26.288233 -15.312489
v -4.093555 26.288233 40.900167
v -3.682445 26.288233 40.900167
v -4.093555 26.821566 40.900167
v -3.682445 26.821566 40.900167
v -4.093555 26.821566 -15.312489
v -3.682445 26.821566 -15.312489
v -4.093555 26.288233 -15.312489
v -3.682445 26.288233 -15.312489
v -2.317608 26.288233 40.900167
v -1.906497 26.288233 40.900167
v -2.317608 26.821566 40.900167
v -1.906497 26.821566 40.900167
v -2.317608 26.821566 -15.312489
v -1.906497 26.821566 -15.312489
v -2.317608 26.288233 -15.312489
v -1.906497 26.288233 -15.312489
v -1.093556 26.288233 40.900167
v -0.682444 26.288233 40.900167
v -1.093556 26.821566 40.900167
v -0.682444 26.821566 40.900167
v -1.093556 26.821566 -15.312489
v -0.682444 26.821566 -15.312489
v -1.093556 26.288233 -15.312489
v -0.682444 26.288233 -15.312489
v 0.682392 26.288233 40.900167
v 1.093503 26.288233 40.900167
v 0.682392 26.821566 40.900167
v 1.093503 26.821566 40.900167
v 0.682392 26.821566 -15.312489
v 1.093503 26.821566 -15.312489
v 0.682392 26.288233 -15.312489
v 1.093503 26.288233 -15.312489
vt 0.954789 0.053522
vt 0.954789 0.031179
vt 0.955180 0.031179
vt 0.955180 0.053522
vt 0.955378 0.053522
vt 0.955378 0.031179
vt 0.955769 0.031179
vt 0.955769 0.053522
vt 0.956949 0.053522
vt 0.956949 0.031179
vt 0.957340 0.031179
vt 0.957340 0.053522
vt 0.957538 0.053522
vt 0.957538 0.031179
vt 0.957929 0.031179
vt 0.957929 0.053522
vt 0.959109 0.053522
vt 0.959109 0.031179
vt 0.959500 0.031179
vt 0.959500 0.053522
vt 0.959698 0.053522
vt 0.959698 0.031179
vt 0.960089 0.031179
vt 0.960089 0.053522
vt 0.961269 0.053522
vt 0.961269 0.031179
vt 0.961660 0.031179
vt 0.961660 0.053522
vt 0.961858 0.053522
vt 0.961858 0.031179
vt 0.962249 0.031179
vt 0.962249 0.053522
vt 0.963429 0.053522
vt 0.963429 0.031179
vt 0.963820 0.031179
vt 0.963820 0.053522
vt 0.964018 0.053522
vt 0.964018 0.031179
vt 0.964410 0.031179
vt 0.964410 0.053522
vt 0.965589 0.053522
vt 0.965589 0.031179
vt 0.965981 0.031179
vt 0.965981 0.053522
vt 0.966179 0.053522
vt 0.966179 0.031179
vt 0.966570 0.031179
vt 0.966570 0.053522
vt 0.967750 0.053522
vt 0.967750 0.031179
vt 0.968141 0.031179
vt 0.968141 0.053522
vt 0.968339 0.053522
vt 0.968339 0.031179
vt 0.968730 0.031179
vt 0.968730 0.053522
vt 0.969910 0.053522
vt 0.969910 0.031179
vt 0.970301 0.031179
vt 0.970301 0.053522
vt 0.970499 0.053522
vt 0.970499 0.031179
vt 0.970890 0.031179
vt 0.970890 0.053522
vt 0.972070 0.053522
vt 0.972070 0.031179
vt 0.972461 0.031179
vt 0.972461 0.053522
vt 0.972659 0.053522
vt 0.972659 0.031179
vt 0.973050 0.031179
vt 0.973050 0.053522
vt 0.974230 0.053522
vt 0.974230 0.031179
vt 0.974621 0.031179
vt 0.974621 0.053522
vt 0.974819 0.053522
vt 0.974819 0.031179
vt 0.975210 0.031179
vt 0.975210 0.053522
vt 0.953802 0.031179
vt 0.954103 0.031179
vt 0.954103 0.053522
vt 0.953802 0.053522
vt 0.954298 0.031179
vt 0.954599 0.031179
vt 0.954599 0.053522
vt 0.954298 0.053522
vt 0.955967 0.031179
vt 0.956268 0.031179
vt 0.956268 0.053522
vt 0.955967 0.053522
vt 0.956458 0.031179
vt 0.956759 0.031179
vt 0.956759 0.053522
vt 0.956458 0.053522
vt 0.958127 0.031179
vt 0.958429 0.031179
vt 0.958429 0.053522
vt 0.958127 0.053522
vt 0.958618 0.031179
vt 0.958919 0.031179
vt 0.958919 0.053522
vt 0.958618 0.053522
vt 0.960287 0.031179
vt 0.960589 0.031179
vt 0.960589 0.053522
vt 0.960287 0.053522
vt 0.960778 0.031179
vt 0.961080 0.031179
vt 0.961080 0.053522
vt 0.960778 0.053522
vt 0.962447 0.031179
vt 0.962749 0.031179
vt 0.962749 0.053522
vt 0.962447 0.053522
vt 0.962938 0.031179
vt 0.963240 0.031179
vt 0.963240 0.053522
vt 0.962938 0.053522
vt 0.964607 0.031179
vt 0.964909 0.031179
vt 0.964909 0.053522
vt 0.964607 0.053522
vt 0.965098 0.031179
vt 0.965400 0.031179
vt 0.965400 0.053522
vt 0.965098 0.053522
vt 0.966768 0.031179
vt 0.967069 0.031179
vt 0.967069 0.053522
vt 0.966768 0.053522
vt 0.967259 0.031179
vt 0.967560 0.031179
vt 0.967560 0.053522
vt 0.967259 0.053522
vt 0.968928 0.031179
vt 0.969229 0.031179
vt 0.969229 0.053522
vt 0.968928 0.053522
vt 0.969419 0.031179
vt 0.969720 0.031179
vt 0.969720 0.053522
vt 0.969419 0.053522
vt 0.971088 0.031179
vt 0.971390 0.031179
vt 0.971390 0.053522
vt 0.971088 0.053522
vt 0.971579 0.031179
vt 0.971880 0.031179
vt 0.971880 0.053522
vt 0.971579 0.053522
vt 0.973248 0.031179
vt 0.973550 0.031179
vt 0.973550 0.053522
vt 0.973248 0.053522
vt 0.973739 0.031179
vt 0.974041 0.031179
vt 0.974041 0.053522
vt 0.973739 0.053522
vt 0.975408 0.031179
vt 0.975710 0.031179
vt 0.975710 0.031570
vt 0.975408 0.031570
vt 0.975899 0.031179
vt 0.976201 0.031179
vt 0.976201 0.031570
vt 0.975899 0.031570
vt 0.976390 0.031179
vt 0.976692 0.031179
vt 0.976692 0.031570
vt 0.976390 0.031570
vt 0.976881 0.031179
vt 0.977183 0.031179
vt 0.977183 0.031570
vt 0.976881 0.031570
vt 0.977372 0.031179
vt 0.977674 0.031179
vt 0.977674 0.031570
vt 0.977372 0.031570
vt 0.977863 0.031179
vt 0.978165 0.031179
vt 0.978165 0.031570
vt 0.977863 0.031570
vt 0.978354 0.031179
vt 0.978656 0.031179
vt 0.978656 0.031570
vt 0.978354 0.031570
vt 0.978590 0.031670
vt 0.978892 0.031670
vt 0.978892 0.032062
vt 0.978590 0.032062
vt 0.978134 0.031670
vt 0.978436 0.031670
vt 0.978436 0.032062
vt 0.978134 0.032062
vt 0.977678 0.031670
vt 0.977980 0.031670
vt 0.977980 0.032062
vt 0.977678 0.032062
vt 0.977222 0.031670
vt 0.977524 0.031670
vt 0.977524 0.032062
vt 0.977222 0.032062
vt 0.976766 0.031670
vt 0.977068 0.031670
vt 0.977068 0.032062
vt 0.976766 0.032062
vt 0.976310 0.031670
vt 0.976611 0.031670
vt 0.976611 0.032062
vt 0.976310 0.032062
vt 0.975854 0.031670
vt 0.976156 0.031670
vt 0.976156 0.032062
vt 0.975854 0.032062
vt 0.975398 0.031670
vt 0.975699 0.031670
vt 0.975699 0.032062
vt 0.975398 0.032062
vt 0.974942 0.053623
vt 0.975243 0.053623
vt 0.975243 0.054014
vt 0.974942 0.054014
vt 0.974486 0.053623
vt 0.974787 0.053623
vt 0.974787 0.054014
vt 0.974486 0.054014
vt 0.974030 0.053623
vt 0.974331 0.053623
vt 0.974331 0.054014
vt 0.974030 0.054014
vt 0.973574 0.053623
vt 0.973875 0.053623
vt 0.973875 0.054014
vt 0.973574 0.054014
vt 0.973118 0.053623
vt 0.973419 0.053623
vt 0.973419 0.054014
vt 0.973118 0.054014
vn 0.000000 0.000000 1.000000
vn 0.000000 0.000000 1.000000
vn 0.000000 0.000000 1.000000
vn 0.000000 0.000000 1.000000
vn 0.000000 1.000000 0.000000
vn 0.000000 1.000000 0.000000
vn 0.000000 1.000000 0.000000
vn 0.000000 1.000000 0.000000
vn 0.000000 0.000000 -1.000000
vn 0.000000 0.000000 -1.000000
vn 0.000000 0.000000 -1.000000
vn 0.000000 0.000000 -1.000000
vn 0.000000 -1.000000 0.000000
vn 0.000000 -1.000000 0.000000
vn 0.000000 -1.000000 0.000000
vn 0.000000 -1.000000 0.000000
vn 1.000000 0.000000 0.000000
vn 1.000000 0.000000 0.000000
vn 1.000000 0.000000 0.000000
vn 1.000000 0.000000 0.000000
vn -1.000000 0.000000 0.000000
vn -1.000000 0.000000 0.000000
vn -1.000000 0.000000 0.000000
vn -1.000000 0.000000 0.000000
vn 0.000000 0.000000 1.000000
vn 0.000000 0.000000 1.000000
vn 0.000000 0.000000 1.000000
vn 0.000000 0.000000 1.000000
vn 0.000000 1.000000 0.000000
vn 0.000000 1.000000 0.000000
vn 0.000000 1.000000 0.000000
vn 0.000000 1.000000 0.000000
vn 0.000000 0.000000 -1.000000
vn 0.000000 0.000000 -1.000000
vn 0.000000 0.000000 -1.000000
vn 0.000000 0.000000 -1.000000
vn 0.000000 -1.000000 0.000000
vn 0.000000 -1.000000 0.000000
vn 0.000000 -1.000000 0.000000
vn 0.000000 -1.000000 0.000000
vn 1.000000 0.000000 0.000000
vn 1.000000 0.000000 0.000000
vn 1.000000 0.000000 0.000000
vn 1.000000 0.000000 0.000000
vn -1.000000 0.000000 0.000000
vn -1.000000 0.000000 0.000000
vn -1.000000 0.000000 0.000000
vn -1.000000 0.000000 0.000000
vn 0.000000 0.000000 1.000000
vn 0.000000 0.000000 1.000000
vn 0.000000 0.000000 1.000000
vn 0.000000 0.000000 1.000000
vn 0.000000 1.000000 0.000000
vn 0.000000 1.000000 0.000000
vn 0.000000 1.000000 0.000000
vn 0.000000 1.000000 0.000000
vn 0.000000 0.000000 -1.000000
vn 0.000000 0.000000 -1.000000
vn 0.000000 0.000000 -1.000000
vn 0.000000 0.000000 -1.000000
vn 0.000000 -1.000000 0.000000
vn 0.000000 -1.000000 0.000000
vn 0.000000 -1.000000 0.000000
vn 0.000000 -1.000000 0.000000
vn 1.000000 0.000000 0.000000
vn 1.000000 0.000000 0.000000
vn 1.000000 0.000000 0.000000
vn 1.000000 0.000000 0.000000
vn -1.000000 0.000000 0.000000
vn -1.000000 0.000000 0.000000
vn -1.000000 0.000000 0.000000
vn -1.000000 0.000000 0.000000
vn 0.000000 0.000000 1.000000
vn 0.000000 0.000000 1.000000
vn 0.000000 0.000000 1.000000
vn 0.000000 0.000000 1.000000
vn 0.000000 1.000000 0.000000
vn 0.000000 1.000000 0.000000
vn 0.000000 1.000000 0.000000
vn 0.000000 1.000000 0.000000
vn 0.000000 0.000000 -1.000000
vn 0.000000 0.000000 -1.000000
vn 0.000000 0.000000 -1.000000
vn 0.000000 0.000000 -1.000000
vn 0.000000 -1.000000 0.000000
vn 0.000000 -1.000000 0.000000
vn 0.000000 -1.000000 0.000000
vn 0.000000 -1.000000 0.000000
vn 1.000000 0.000000 0.000000
vn 1.000000 0.000000 0.000000
vn 1.000000 0.000000 0.000000
vn 1.000000 0.000000 0.000000
vn -1.000000 0.000000 0.000000
vn -1.000000 0.000000 0.000000
vn -1.000000 0.000000 0.000000
vn -1.000000 0.000000 0.000000
vn 0.000000 0.000000 1.000000
vn 0.000000 0.000000 1.000000
vn 0.000000 0.000000 1.000000
vn 0.000000 0.000000 1.000000
vn 0.000000 1.000000 0.000000
vn 0.000000 1.000000 0.000000
vn 0.000000 1.000000 0.000000
vn 0.000000 1.000000 0.000000
vn 0.000000 0.000000 -1.000000
vn 0.000000 0.000000 -1.000000
vn 0.000000 0.000000 -1.000000
vn 0.000000 0.000000 -1.000000
vn 0.000000 -1.000000 0.000000
vn 0.000000 -1.000000 0.000000
vn 0.000000 -1.000000 0.000000
vn 0.000000 -1.000000 0.000000
vn 1.000000 0.000000 0.000000
vn 1.000000 0.000000 0.000000
vn 1.000000 0.000000 0.000000
vn 1.000000 0.000000 0.000000
vn -1.000000 0.000000 0.000000
vn -1.000000 0.000000 0.000000
vn -1.000000 0.000000 0.000000
vn -1.000000 0.000000 0.000000
vn 0.000000 0.000000 1.000000
vn 0.000000 0.000000 1.000000
vn 0.000000 0.000000 1.000000
vn 0.000000 0.000000 1.000000
vn 0.000000 1.000000 0.000000
vn 0.000000 1.000000 0.000000
vn 0.000000 1.000000 0.000000
vn 0.000000 1.000000 0.000000
vn 0.000000 0.000000 -1.000000
vn 0.000000 0.000000 -1.000000
vn 0.000000 0.000000 -1.000000
vn 0.000000 0.000000 -1.000000
vn 0.000000 -1.000000 0.000000
vn 0.000000 -1.000000 0.000000
vn 0.000000 -1.000000 0.000000
vn 0.000000 -1.000000 0.000000
vn 1.000000 0.000000 0.000000
vn 1.000000 0.000000 0.000000
vn 1.000000 0.000000 0.000000
vn 1.000000 0.000000 0.000000
vn -1.000000 0.000000 0.000000
vn -1.000000 0.000000 0.000000
vn -1.000000 0.000000 0.000000
vn -1.000000 0.000000 0.000000
vn 0.000000 0.000000 1.000000
vn 0.000000 0.000000 1.000000
vn 0.000000 0.000000 1.000000
vn 0.000000 0.000000 1.000000
vn 0.000000 1.000000 0.000000
vn 0.000000 1.000000 0.000000
vn 0.000000 1.000000 0.000000
vn 0.000000 1.000000 0.000000
vn 0.000000 0.000000 -1.000000
vn 0.000000 0.000000 -1.000000
vn 0.000000 0.000000 -1.000000
vn 0.000000 0.000000 -1.000000
vn 0.000000 -1.000000 0.000000
vn 0.000000 -1.000000 0.000000
vn 0.000000 -1.000000 0.000000
vn 0.000000 -1.000000 0.000000
vn 1.000000 0.000000 0.000000
vn 1.000000 0.000000 0.000000
vn 1.000000 0.000000 0.000000
vn 1.000000 0.000000 0.000000
vn -1.000000 0.000000 0.000000
vn -1.000000 0.000000 0.000000
vn -1.000000 0.000000 0.000000
vn -1.000000 0.000000 0.000000
vn 0.000000 0.000000 1.000000
vn 0.000000 0.000000 1.000000
vn 0.000000 0.000000 1.000000
vn 0.000000 0.000000 1.000000
vn 0.000000 1.000000 0.000000
vn 0.000000 1.000000 0.000000
vn 0.000000 1.000000 0.000000
vn 0.000000 1.000000 0.000000
vn 0.000000 0.000000 -1.000000
vn 0.000000 0.000000 -1.000000
vn 0.000000 0.000000 -1.000000
vn 0.000000 0.000000 -1.000000
vn 0.000000 -1.000000 0.000000
vn 0.000000 -1.000000 0.000000
vn 0.000000 -1.000000 0.000000
vn 0.000000 -1.000000 0.000000
vn 1.000000 0.000000 0.000000
vn 1.000000 0.000000 0.000000
vn 1.000000 0.000000 0.000000
vn 1.000000 0.000000 0.000000
vn -1.000000 0.000000 0.000000
vn -1.000000 0.000000 0.000000
vn -1.000000 0.000000 0.000000
vn -1.000000 0.000000 0.000000
vn 0.000000 0.000000 1.000000
vn 0.000000 0.000000 1.000000
vn 0.000000 0.000000 1.000000
vn 0.000000 0.000000 1.000000
vn 0.000000 1.000000 0.000000
vn 0.000000 1.000000 0.000000
vn 0.000000 1.000000 0.000000
vn 0.000000 1.000000 0.000000
vn 0.000000 0.000000 -1.000000
vn 0.000000 0.000000 -1.000000
vn 0.000000 0.000000 -1.000000
vn 0.000000 0.000000 -1.000000
vn 0.000000 -1.000000 0.000000
vn 0.000000 -1.000000 0.000000
vn 0.000000 -1.000000 0.000000
vn 0.000000 -1.000000 0.000000
vn 1.000000 0.000000 0.000000
vn 1.000000 0.000000 0.000000
vn 1.000000 0.000000 0.000000
vn 1.000000 0.000000 0.000000
vn -1.000000 0.000000 0.000000
vn -1.000000 0.000000 0.000000
vn -1.000000 0.000000 0.000000
vn -1.000000 0.000000 0.000000
vn 0.000000 0.000000 1.000000
vn 0.000000 0.000000 1.000000
vn 0.000000 0.000000 1.000000
vn 0.000000 0.000000 1.000000
vn 0.000000 1.000000 0.000000
vn 0.000000 1.000000 0.000000
vn 0.000000 1.000000 0.000000
vn 0.000000 1.000000 0.000000
vn 0.000000 0.000000 -1.000000
vn 0.000000 0.000000 -1.000000
vn 0.000000 0.000000 -1.000000
vn 0.000000 0.000000 -1.000000
vn 0.000000 -1.000000 0.000000
vn 0.000000 -1.000000 0.000000
vn 0.000000 -1.000000 0.000000
vn 0.000000 -1.000000 0.000000
vn 1.000000 0.000000 0.000000
vn 1.000000 0.000000 0.000000
vn 1.000000 0.000000 0.000000
vn 1.000000 0.000000 0.000000
vn -1.000000 0.000000 0.000000
vn -1.000000 0.000000 0.000000
vn -1.000000 0.000000 0.000000
vn -1.000000 0.000000 0.000000
s off
g train_tracks5
f 1/161/1 2/162/2 4/163/3 3/164/4
f 3/81/5 4/82/6 6/83/7 5/84/8
f 5/165/9 6/166/10 8/167/11 7/168/12
f 7/85/13 8/86/14 2/87/15 1/88/16
f 2/1/17 8/2/18 6/3/19 4/4/20
f 7/5/21 1/6/22 3/7/23 5/8/24
f 9/169/25 10/170/26 12/171/27 11/172/28
f 11/89/29 12/90/30 14/91/31 13/92/32
f 13/173/33 14/174/34 16/175/35 15/176/36
f 15/93/37 16/94/38 10/95/39 9/96/40
f 10/9/41 16/10/42 14/11/43 12/12/44
f 15/13/45 9/14/46 11/15/47 13/16/48
f 17/177/49 18/178/50 20/179/51 19/180/52
f 19/97/53 20/98/54 22/99/55 21/100/56
f 21/181/57 22/182/58 24/183/59 23/184/60
f 23/101/61 24/102/62 18/103/63 17/104/64
f 18/17/65 24/18/66 22/19/67 20/20/68
f 23/21/69 17/22/70 19/23/71 21/24/72
f 25/185/73 26/186/74 28/187/75 27/188/76
f 27/105/77 28/106/78 30/107/79 29/108/80
f 29/189/81 30/190/82 32/191/83 31/192/84
f 31/109/85 32/110/86 26/111/87 25/112/88
f 26/25/89 32/26/90 30/27/91 28/28/92
f 31/29/93 25/30/94 27/31/95 29/32/96
f 33/193/97 34/194/98 36/195/99 35/196/100
f 35/113/101 36/114/102 38/115/103 37/116/104
f 37/197/105 38/198/106 40/199/107 39/200/108
f 39/117/109 40/118/110 34/119/111 33/120/112
f 34/33/113 40/34/114 38/35/115 36/36/116
f 39/37/117 33/38/118 35/39/119 37/40/120
f 41/201/121 42/202/122 44/203/123 43/204/124
f 43/121/125 44/122/126 46/123/127 45/124/128
f 45/205/129 46/206/130 48/207/131 47/208/132
f 47/125/133 48/126/134 42/127/135 41/128/136
f 42/41/137 48/42/138 46/43/139 44/44/140
f 47/45/141 41/46/142 43/47/143 45/48/144
f 49/209/145 50/210/146 52/211/147 51/212/148
f 51/129/149 52/130/150 54/131/151 53/132/152
f 53/213/153 54/214/154 56/215/155 55/216/156
f 55/133/157 56/134/158 50/135/159 49/136/160
f 50/49/161 56/50/162 54/51/163 52/52/164
f 55/53/165 49/54/166 51/55/167 53/56/168
f 57/217/169 58/218/170 60/219/171 59/220/172
f 59/137/173 60/138/174 62/139/175 61/140/176
f 61/221/177 62/222/178 64/223/179 63/224/180
f 63/141/181 64/142/182 58/143/183 57/144/184
f 58/57/185 64/58/186 62/59/187 60/60/188
f 63/61/189 57/62/190 59/63/191 61/64/192
f 65/225/193 66/226/194 68/227/195 67/228/196
f 67/145/197 68/146/198 70/147/199 69/148/200
f 69/229/201 70/230/202 72/231/203 71/232/204
f 71/149/205 72/150/206 66/151/207 65/152/208
f 66/65/209 72/66/210 70/67/211 68/68/212
f 71/69/213 65/70/214 67/71/215 69/72/216
f 73/233/217 74/234/218 76/235/219 75/236/220
f 75/153/221 76/154/222 78/155/223 77/156/224
f 77/237/225 78/238/226 80/239/227 79/240/228
f 79/157/229 80/158/230 74/159/231 73/160/232
f 74/73/233 80/74/234 78/75/235 76/76/236
f 79/77/237 73/78/238 75/79/239 77/80/240
