# This file uses centimeters as units for non-parametric coordinates.

mtllib Train.mtl
g default
v -1.000000 -0.951057 -0.309017
v -1.000000 -0.809018 -0.587786
v -1.000000 -0.587786 -0.809017
v -1.000000 -0.309017 -0.951057
v -1.000000 0.000000 -1.000000
v -1.000000 0.309017 -0.951057
v -1.000000 0.587785 -0.809017
v -1.000000 0.809017 -0.587785
v -1.000000 0.951057 -0.309017
v -1.000000 1.000000 0.000000
v -1.000000 0.951057 0.309017
v -1.000000 0.809017 0.587785
v -1.000000 0.587785 0.809017
v -1.000000 0.309017 0.951057
v -1.000000 0.000000 1.000000
v -1.000000 -0.309017 0.951057
v -1.000000 -0.587785 0.809017
v -1.000000 -0.809017 0.587785
v -1.000000 -0.951057 0.309017
v -1.000000 -1.000000 0.000000
v 1.000000 -0.951057 -0.309017
v 1.000000 -0.809018 -0.587786
v 1.000000 -0.587786 -0.809017
v 1.000000 -0.309017 -0.951057
v 1.000000 0.000000 -1.000000
v 1.000000 0.309017 -0.951057
v 1.000000 0.587785 -0.809017
v 1.000000 0.809017 -0.587785
v 1.000000 0.951057 -0.309017
v 1.000000 1.000000 0.000000
v 1.000000 0.951057 0.309017
v 1.000000 0.809017 0.587785
v 1.000000 0.587785 0.809017
v 1.000000 0.309017 0.951057
v 1.000000 0.000000 1.000000
v 1.000000 -0.309017 0.951057
v 1.000000 -0.587785 0.809017
v 1.000000 -0.809017 0.587785
v 1.000000 -0.951057 0.309017
v 1.000000 -1.000000 0.000000
v -1.000000 0.000000 0.000000
v 1.000000 0.000000 0.000000
v -1.413776 0.390126 3.177464
v 1.413776 0.390126 3.177464
v -1.413776 3.633021 3.177464
v 1.413776 3.633021 3.177464
v -1.413776 3.633021 -3.177464
v 1.413776 3.633021 -3.177464
v -1.413776 0.390126 -3.177464
v 1.413776 0.390126 -3.177464
vt 0.363102 0.773600
vt 0.384868 0.762510
vt 0.408995 0.836766
vt 0.408995 0.758689
vt 0.345829 0.790874
vt 0.433122 0.762510
vt 0.334739 0.812639
vt 0.454888 0.773600
vt 0.330917 0.836766
vt 0.472161 0.790874
vt 0.334739 0.860894
vt 0.483251 0.812639
vt 0.345829 0.882659
vt 0.487072 0.836766
vt 0.363102 0.899933
vt 0.483251 0.860894
vt 0.384868 0.911023
vt 0.472161 0.882659
vt 0.408995 0.914844
vt 0.454888 0.899933
vt 0.433122 0.911023
vt 0.497407 0.812639
vt 0.508497 0.790874
vt 0.571663 0.836767
vt 0.525770 0.773600
vt 0.493586 0.836767
vt 0.547536 0.762510
vt 0.497407 0.860894
vt 0.571663 0.758689
vt 0.508497 0.882659
vt 0.595791 0.762510
vt 0.525770 0.899933
vt 0.617556 0.773600
vt 0.547536 0.911023
vt 0.634829 0.790874
vt 0.571663 0.914844
vt 0.645919 0.812639
vt 0.595791 0.911023
vt 0.649741 0.836767
vt 0.617556 0.899933
vt 0.645919 0.860894
vt 0.634829 0.882659
vt 0.996899 0.010608
vt 0.500721 0.010608
vt 0.500721 0.263806
vt 0.996899 0.263806
vt 0.500826 0.010566
vt 0.997003 0.010566
vt 0.997003 0.263764
vt 0.500826 0.263764
vt 0.132242 0.837563
vt 0.110477 0.837563
vt 0.110477 0.681408
vt 0.132242 0.681408
vt 0.093203 0.837563
vt 0.093203 0.681408
vt 0.156370 0.837563
vt 0.156370 0.681408
vt 0.180497 0.837563
vt 0.180497 0.681408
vt 0.202262 0.837563
vt 0.202262 0.681408
vt 0.219536 0.837563
vt 0.219536 0.681408
vt 0.110779 0.995917
vt 0.089013 0.995917
vt 0.089013 0.839761
vt 0.110779 0.839761
vt 0.064886 0.995917
vt 0.064886 0.839761
vt 0.128052 0.995917
vt 0.128052 0.839761
vt 0.040759 0.995917
vt 0.040759 0.839761
vt 0.018993 0.995917
vt 0.018993 0.839761
vt 0.001720 0.995917
vt 0.001720 0.839761
vt 0.001827 0.001992
vt 0.222595 0.001992
vt 0.222595 0.498170
vt 0.001827 0.498170
vt 0.229026 0.001992
vt 0.449795 0.001992
vt 0.449795 0.498170
vt 0.229026 0.498170
vt 0.093613 0.837535
vt 0.071847 0.837535
vt 0.071847 0.681380
vt 0.093613 0.681380
vt 0.047720 0.837535
vt 0.047720 0.681380
vt 0.023593 0.837535
vt 0.023593 0.681380
vt 0.001827 0.837535
vt 0.001827 0.681380
vt 0.225785 0.995917
vt 0.204020 0.995917
vt 0.204020 0.839761
vt 0.225785 0.839761
vt 0.179893 0.995917
vt 0.179893 0.839761
vt 0.155765 0.995917
vt 0.155765 0.839761
vt 0.134000 0.995917
vt 0.134000 0.839761
vt 0.760589 0.355901
vt 0.981357 0.355901
vt 0.981357 0.609098
vt 0.760589 0.609098
vt 0.751703 0.609098
vt 0.530935 0.609098
vt 0.530935 0.355901
vt 0.751703 0.355901
vt 0.155765 0.995917
vt 0.155765 0.839761
vt 0.179893 0.995917
vt 0.179893 0.839761
vt 0.204020 0.995917
vt 0.204020 0.839761
vt 0.018993 0.995917
vt 0.018993 0.839761
vt 0.040759 0.995917
vt 0.040759 0.839761
vt 0.064886 0.995917
vt 0.064886 0.839761
vt 0.089013 0.995917
vt 0.089013 0.839761
vt 0.110779 0.995917
vt 0.110779 0.839761
vn 0.000000 -0.951057 -0.309016
vn 0.000000 -0.809017 -0.587785
vn 0.000000 -0.809017 -0.587785
vn 0.000000 -0.951057 -0.309016
vn 0.000000 -0.587785 -0.809017
vn 0.000000 -0.587785 -0.809017
vn 0.000000 -0.309017 -0.951057
vn 0.000000 -0.309017 -0.951057
vn 0.000000 0.000000 -1.000000
vn 0.000000 0.000000 -1.000000
vn 0.000000 0.309017 -0.951056
vn 0.000000 0.309017 -0.951056
vn 0.000000 0.587785 -0.809017
vn 0.000000 0.587785 -0.809017
vn 0.000000 0.809017 -0.587785
vn 0.000000 0.809017 -0.587785
vn 0.000000 0.951057 -0.309017
vn 0.000000 0.951057 -0.309017
vn 0.000000 1.000000 0.000000
vn 0.000000 1.000000 0.000000
vn 0.000000 0.951057 0.309017
vn 0.000000 0.951057 0.309017
vn 0.000000 0.809017 0.587785
vn 0.000000 0.809017 0.587785
vn 0.000000 0.587785 0.809017
vn 0.000000 0.587785 0.809017
vn 0.000000 0.309017 0.951057
vn 0.000000 0.309017 0.951057
vn 0.000000 -0.000000 1.000000
vn 0.000000 -0.000000 1.000000
vn 0.000000 -0.309017 0.951057
vn 0.000000 -0.309017 0.951057
vn 0.000000 -0.587785 0.809017
vn 0.000000 -0.587785 0.809017
vn 0.000000 -0.809017 0.587785
vn 0.000000 -0.809017 0.587785
vn 0.000000 -0.951057 0.309017
vn 0.000000 -0.951057 0.309017
vn 0.000000 -1.000000 0.000001
vn 0.000000 -1.000000 0.000001
vn -1.000000 0.000000 0.000000
vn -1.000000 0.000000 0.000000
vn -1.000000 0.000000 0.000000
vn -1.000000 0.000000 0.000000
vn -1.000000 0.000000 0.000000
vn -1.000000 0.000000 0.000000
vn -1.000000 0.000000 0.000000
vn -1.000000 0.000000 0.000000
vn -1.000000 0.000000 0.000000
vn -1.000000 0.000000 0.000000
vn -1.000000 0.000000 0.000000
vn -1.000000 0.000000 0.000000
vn -1.000000 0.000000 0.000000
vn -1.000000 0.000000 0.000000
vn -1.000000 0.000000 0.000000
vn -1.000000 0.000000 0.000000
vn -1.000000 0.000000 0.000000
vn -1.000000 0.000000 0.000000
vn -1.000000 0.000000 0.000000
vn -1.000000 0.000000 0.000000
vn -1.000000 0.000000 0.000000
vn 1.000000 0.000000 0.000000
vn 1.000000 0.000000 0.000000
vn 1.000000 0.000000 0.000000
vn 1.000000 0.000000 0.000000
vn 1.000000 0.000000 0.000000
vn 1.000000 0.000000 0.000000
vn 1.000000 0.000000 0.000000
vn 1.000000 0.000000 0.000000
vn 1.000000 0.000000 0.000000
vn 1.000000 0.000000 0.000000
vn 1.000000 0.000000 0.000000
vn 1.000000 0.000000 0.000000
vn 1.000000 0.000000 0.000000
vn 1.000000 0.000000 0.000000
vn 1.000000 0.000000 0.000000
vn 1.000000 0.000000 0.000000
vn 1.000000 0.000000 0.000000
vn 1.000000 0.000000 0.000000
vn 1.000000 0.000000 0.000000
vn 1.000000 0.000000 0.000000
vn 1.000000 0.000000 0.000000
vn 0.000000 0.000000 1.000000
vn 0.000000 0.000000 1.000000
vn 0.000000 0.000000 1.000000
vn 0.000000 0.000000 1.000000
vn 0.000000 1.000000 0.000000
vn 0.000000 1.000000 0.000000
vn 0.000000 1.000000 0.000000
vn 0.000000 1.000000 0.000000
vn 0.000000 0.000000 -1.000000
vn 0.000000 0.000000 -1.000000
vn 0.000000 0.000000 -1.000000
vn 0.000000 0.000000 -1.000000
vn 0.000000 -1.000000 0.000000
vn 0.000000 -1.000000 0.000000
vn 0.000000 -1.000000 0.000000
vn 0.000000 -1.000000 0.000000
vn 1.000000 0.000000 0.000000
vn 1.000000 0.000000 0.000000
vn 1.000000 0.000000 0.000000
vn 1.000000 0.000000 0.000000
vn -1.000000 0.000000 0.000000
vn -1.000000 0.000000 0.000000
vn -1.000000 0.000000 0.000000
vn -1.000000 0.000000 0.000000
s 1
g pCylinder2
usemtl phong2SG
f 1/51/1 2/52/2 22/53/3 21/54/4
f 2/52/2 3/55/5 23/56/6 22/53/3
f 3/87/5 4/88/7 24/89/8 23/90/6
f 4/88/7 5/91/9 25/92/10 24/89/8
f 5/91/9 6/93/11 26/94/12 25/92/10
f 6/93/11 7/95/13 27/96/14 26/94/12
f 7/71/13 8/65/15 28/130/16 27/72/14
f 8/129/15 9/66/17 29/128/18 28/68/16
f 9/127/17 10/69/19 30/126/20 29/67/18
f 10/125/19 11/73/21 31/124/22 30/70/20
f 11/123/21 12/75/23 32/122/24 31/74/22
f 12/121/23 13/77/25 33/78/26 32/76/24
f 13/97/25 14/98/27 34/120/28 33/100/26
f 14/119/27 15/101/29 35/118/30 34/99/28
f 15/117/29 16/103/31 36/116/32 35/102/30
f 16/115/31 17/105/33 37/106/34 36/104/32
f 17/63/33 18/61/35 38/62/36 37/64/34
f 18/61/35 19/59/37 39/60/38 38/62/36
f 19/59/37 20/57/39 40/58/40 39/60/38
f 20/57/39 1/51/1 21/54/4 40/58/40
s 2
f 2/1/41 1/2/42 41/3/43
f 3/5/44 2/1/41 41/3/43
f 4/7/45 3/5/44 41/3/43
f 5/9/46 4/7/45 41/3/43
f 6/11/47 5/9/46 41/3/43
f 7/13/48 6/11/47 41/3/43
f 8/15/49 7/13/48 41/3/43
f 9/17/50 8/15/49 41/3/43
f 10/19/51 9/17/50 41/3/43
f 11/21/52 10/19/51 41/3/43
f 12/20/53 11/21/52 41/3/43
f 13/18/54 12/20/53 41/3/43
f 14/16/55 13/18/54 41/3/43
f 15/14/56 14/16/55 41/3/43
f 16/12/57 15/14/56 41/3/43
f 17/10/58 16/12/57 41/3/43
f 18/8/59 17/10/58 41/3/43
f 19/6/60 18/8/59 41/3/43
f 20/4/61 19/6/60 41/3/43
f 1/2/42 20/4/61 41/3/43
s 3
f 21/22/62 22/23/63 42/24/64
f 22/23/63 23/25/65 42/24/64
f 23/25/65 24/27/66 42/24/64
f 24/27/66 25/29/67 42/24/64
f 25/29/67 26/31/68 42/24/64
f 26/31/68 27/33/69 42/24/64
f 27/33/69 28/35/70 42/24/64
f 28/35/70 29/37/71 42/24/64
f 29/37/71 30/39/72 42/24/64
f 30/39/72 31/41/73 42/24/64
f 31/41/73 32/42/74 42/24/64
f 32/42/74 33/40/75 42/24/64
f 33/40/75 34/38/76 42/24/64
f 34/38/76 35/36/77 42/24/64
f 35/36/77 36/34/78 42/24/64
f 36/34/78 37/32/79 42/24/64
f 37/32/79 38/30/80 42/24/64
f 38/30/80 39/28/81 42/24/64
f 39/28/81 40/26/82 42/24/64
f 40/26/82 21/22/62 42/24/64
s off
f 43/107/83 44/108/84 46/109/85 45/110/86
f 45/79/87 46/80/88 48/81/89 47/82/90
f 47/111/91 48/112/92 50/113/93 49/114/94
f 49/83/95 50/84/96 44/85/97 43/86/98
f 44/43/99 50/44/100 48/45/101 46/46/102
f 49/47/103 43/48/104 45/49/105 47/50/106
